<svg width="42" height="42" viewBox="0 0 42 42" fill="none" xmlns="http://www.w3.org/2000/svg">
<path fill-rule="evenodd" clip-rule="evenodd" d="M35 19.25C35 14.3344 35 11.8766 33.8203 10.111C33.3096 9.34668 32.6533 8.69042 31.889 8.17971C30.1234 7 27.6656 7 22.75 7H19.25C14.3344 7 11.8766 7 10.111 8.17971C9.34668 8.69042 8.69042 9.34668 8.17971 10.111C7 11.8766 7 14.3344 7 19.25C7 24.1656 7 26.6234 8.17971 28.389C8.69042 29.1533 9.34668 29.8096 10.111 30.3203C11.6534 31.3509 13.724 31.4811 17.5 31.4976V31.5L20.1056 36.7111C20.4741 37.4482 21.5259 37.4482 21.8944 36.7111L24.5 31.5V31.4976C28.276 31.4811 30.3466 31.3509 31.889 30.3203C32.6533 29.8096 33.3096 29.1533 33.8203 28.389C35 26.6234 35 24.1656 35 19.25ZM14 21C14.9665 21 15.75 20.2165 15.75 19.25C15.75 18.2835 14.9665 17.5 14 17.5C13.0335 17.5 12.25 18.2835 12.25 19.25C12.25 20.2165 13.0335 21 14 21ZM22.75 19.25C22.75 20.2165 21.9665 21 21 21C20.0335 21 19.25 20.2165 19.25 19.25C19.25 18.2835 20.0335 17.5 21 17.5C21.9665 17.5 22.75 18.2835 22.75 19.25ZM29.75 19.25C29.75 20.2165 28.9665 21 28 21C27.0335 21 26.25 20.2165 26.25 19.25C26.25 18.2835 27.0335 17.5 28 17.5C28.9665 17.5 29.75 18.2835 29.75 19.25Z" fill="white"/>
</svg>
